<svg xmlns="http://www.w3.org/2000/svg" width="28" height="26" fill="none" viewBox="0 0 28 26">
  <path fill="#fff" fill-rule="evenodd" d="M9.22 4.574a4.016 4.016 0 1 1-8.032 0 4.016 4.016 0 0 1 8.031 0Zm-.662 0a3.354 3.354 0 1 1-6.709 0 3.354 3.354 0 0 1 6.709 0Z" clip-rule="evenodd"/>
  <path fill="#fff" d="M13.58 4.243c-.15 0-.273.148-.273.33 0 .184.122.332.274.332h12.957c.151 0 .274-.148.274-.331 0-.183-.123-.33-.274-.33H13.58Z"/>
  <path fill="#fff" fill-rule="evenodd" d="M22.796 24.558a4.016 4.016 0 1 1 0-8.03 4.016 4.016 0 0 1 0 8.03Zm0-.661a3.354 3.354 0 1 1 0-6.708 3.354 3.354 0 0 1 0 6.708Z" clip-rule="evenodd"/>
  <path fill="#fff" d="M14.42 20.212c.15 0 .273.148.273.33 0 .183-.123.332-.274.332H1.462c-.151 0-.274-.148-.274-.331 0-.183.123-.33.274-.33h12.957Z"/>
  <path stroke="#fff" stroke-linecap="round" d="M9.22 4.574a4.016 4.016 0 1 1-8.032 0 4.016 4.016 0 0 1 8.031 0Zm-.662 0a3.354 3.354 0 1 1-6.709 0 3.354 3.354 0 0 1 6.709 0Z" clip-rule="evenodd"/>
  <path stroke="#fff" stroke-linecap="round" d="M13.58 4.243c-.15 0-.273.148-.273.33 0 .184.122.332.274.332h12.957c.151 0 .274-.148.274-.331 0-.183-.123-.33-.274-.33H13.58Z"/>
  <path stroke="#fff" stroke-linecap="round" d="M22.796 24.558a4.016 4.016 0 1 1 0-8.03 4.016 4.016 0 0 1 0 8.03Zm0-.661a3.354 3.354 0 1 1 0-6.708 3.354 3.354 0 0 1 0 6.708Z" clip-rule="evenodd"/>
  <path stroke="#fff" stroke-linecap="round" d="M14.42 20.212c.15 0 .273.148.273.33 0 .183-.123.332-.274.332H1.462c-.151 0-.274-.148-.274-.331 0-.183.123-.33.274-.33h12.957Z"/>
</svg>
