<svg xmlns="http://www.w3.org/2000/svg" width="25" height="25" fill="none" viewBox="0 0 25 25">
  <path fill="#0E0A38" d="M22.066 8.993V20.86a3.16 3.16 0 0 1-3.16 3.16H4.459a3.16 3.16 0 0 1-3.16-3.16V6.415a3.16 3.16 0 0 1 3.16-3.16h12.015c.014-.153.035-.303.063-.452H4.459A3.612 3.612 0 0 0 .848 6.415v14.446a3.612 3.612 0 0 0 3.611 3.612h14.447a3.612 3.612 0 0 0 3.611-3.612V8.942c-.148.024-.299.04-.451.05Z"/>
  <path fill="#0E0A38" d="M24.983 3.753a3.28 3.28 0 1 1-6.56 0 3.28 3.28 0 0 1 6.56 0Z"/>
  <path fill="#0E0A38" fill-rule="evenodd" d="M19.675 8.471a.903.903 0 0 1 0 1.277l-5.359 5.359a1.174 1.174 0 0 1-1.66 0l-1.995-1.996-5.694 5.694a.903.903 0 1 1-1.277-1.277l6.14-6.14a1.174 1.174 0 0 1 1.66 0l1.996 1.995 4.912-4.912a.903.903 0 0 1 1.277 0Z" clip-rule="evenodd"/>
</svg>
