<svg xmlns="http://www.w3.org/2000/svg" width="25" height="25" fill="none" viewBox="0 0 25 25">
  <path stroke="#0E0A38" d="M9.18 2.762V.972h5.784v1.79c0 .32.201.598.491.706 1 .373 1.921.907 2.734 1.57.238.195.578.23.853.07l1.543-.89 2.892 5.01-1.505.869a.754.754 0 0 0-.365.781 9.746 9.746 0 0 1 .018 3.209.754.754 0 0 0 .366.773l1.486.858-2.892 5.01-1.452-.839a.754.754 0 0 0-.86.076 9.67 9.67 0 0 1-2.818 1.64.754.754 0 0 0-.491.706v1.662H9.179V22.31a.754.754 0 0 0-.49-.706 9.668 9.668 0 0 1-2.819-1.64.754.754 0 0 0-.86-.076l-1.452.839-2.892-5.01 1.486-.858a.754.754 0 0 0 .367-.773 9.752 9.752 0 0 1 .018-3.209.754.754 0 0 0-.365-.781l-1.506-.87 2.892-5.009 1.543.89c.275.16.615.125.854-.07a9.665 9.665 0 0 1 2.733-1.57.754.754 0 0 0 .491-.706Zm2.892 15.3a5.588 5.588 0 1 0 0-11.178 5.588 5.588 0 0 0 0 11.177Z"/>
</svg>
