<svg xmlns="http://www.w3.org/2000/svg" width="49" height="49" fill="none" viewBox="0 0 49 49">
  <path fill="#fff" fill-rule="evenodd" d="M30.073 48.069c10.63-2.468 18.55-11.998 18.55-23.379 0-13.254-10.746-24-24-24-13.255 0-24 10.746-24 24 0 11.15 7.604 20.525 17.909 23.22v-6.239h-4.337a.697.697 0 0 1-.389-.118.699.699 0 0 1-.155-.117l-4.91-4.91h-.653a.696.696 0 0 1-.699-.699v-.303a.7.7 0 0 1 .7-.7h1.038a.696.696 0 0 1 .448.163c.052.03.1.067.144.11l4.362 4.363a.703.703 0 0 1 .114-.01h4.848c.282-.4.667-.722 1.117-.929l-.002-.057v-2.427c-6.059-1.308-10.48-5.41-10.48-10.268 0-2.154.868-4.16 2.364-5.838l.085-6.523a.699.699 0 0 1 1.04-.6l5.501 3.08a19.298 19.298 0 0 1 5.637-.823c1.597 0 3.135.187 4.574.533l.031-.023.02-.014.046-.028 6.268-3.51a.699.699 0 0 1 1.04.6l.093 7.1c1.612 1.72 2.555 3.802 2.555 6.046 0 4.858-4.422 8.96-10.48 10.268v2.427l-.003.057a2.805 2.805 0 0 1 1.567 1.959c.04.187.061.382.061.58v6.932a.7.7 0 0 1-.004.077Zm-5.383.621h-.134.134Z" clip-rule="evenodd"/>
</svg>
