<svg xmlns="http://www.w3.org/2000/svg" width="48" height="49" fill="none" viewBox="0 0 48 49">
  <path fill="#fff" d="M10.252 13.587v34.418H1.059V13.587h9.193ZM.486 4.617c0-1.336.467-2.438 1.4-3.308C2.819.44 4.07.005 5.639.005c1.548 0 2.789.435 3.722 1.304.954.87 1.431 1.972 1.431 3.308 0 1.336-.477 2.439-1.43 3.308-.934.87-2.175 1.305-3.723 1.305-1.569 0-2.82-.435-3.753-1.305-.933-.87-1.4-1.972-1.4-3.308Zm26.307 16.318v27.07H17.63V13.587h8.589l.573 7.348Zm-1.337 8.652h-2.48c0-2.544.328-4.835.986-6.87.657-2.057 1.58-3.807 2.767-5.249 1.187-1.463 2.598-2.576 4.23-3.34 1.655-.784 3.5-1.177 5.535-1.177 1.612 0 3.086.233 4.422.7a8.46 8.46 0 0 1 3.435 2.227c.976 1.017 1.718 2.364 2.227 4.04.53 1.675.795 3.721.795 6.139v21.948h-9.225v-21.98c0-1.527-.212-2.715-.636-3.563-.424-.848-1.05-1.442-1.877-1.781-.805-.36-1.802-.54-2.99-.54-1.23 0-2.3.243-3.212.73a6.383 6.383 0 0 0-2.227 2.037c-.573.848-1.007 1.844-1.304 2.99a14.667 14.667 0 0 0-.446 3.69Z"/>
</svg>
