<svg xmlns="http://www.w3.org/2000/svg" width="123" height="27" fill="none" viewBox="0 0 123 27">
  <path fill="#EFEFEF" d="M11.271 26.988c-2.28 0-4.236-.372-5.868-1.116-1.608-.744-2.868-1.836-3.78-3.276-.888-1.44-1.38-3.228-1.476-5.364a139.558 139.558 0 0 1 0-6.408c.096-2.088.6-3.852 1.512-5.292.912-1.464 2.184-2.568 3.816-3.312 1.632-.768 3.564-1.152 5.796-1.152 1.584 0 3.048.204 4.392.612 1.344.384 2.52.96 3.528 1.728a7.753 7.753 0 0 1 2.34 2.736c.576 1.056.876 2.256.9 3.6a.588.588 0 0 1-.216.54.733.733 0 0 1-.54.216h-4.86c-.312 0-.552-.06-.72-.18-.168-.144-.312-.396-.432-.756-.336-1.272-.888-2.136-1.656-2.592-.744-.48-1.668-.72-2.772-.72-1.32 0-2.364.372-3.132 1.116-.768.72-1.188 1.932-1.26 3.636a84.687 84.687 0 0 0 0 6.048c.072 1.704.492 2.928 1.26 3.672.768.72 1.812 1.08 3.132 1.08 1.104 0 2.04-.24 2.808-.72.768-.48 1.308-1.344 1.62-2.592.096-.36.228-.6.396-.72.192-.144.444-.216.756-.216h4.86c.216 0 .396.072.54.216.168.144.24.324.216.54-.024 1.344-.324 2.556-.9 3.636-.552 1.056-1.332 1.968-2.34 2.736-1.008.744-2.184 1.32-3.528 1.728-1.344.384-2.808.576-4.392.576Zm20.166 0c-1.296 0-2.46-.24-3.492-.72-1.008-.504-1.812-1.176-2.412-2.016-.6-.84-.9-1.788-.9-2.844 0-1.704.696-3.048 2.088-4.032 1.392-1.008 3.24-1.692 5.544-2.052l4.5-.684v-.504c0-.864-.18-1.524-.54-1.98-.36-.456-1.02-.684-1.98-.684-.672 0-1.224.132-1.656.396a2.825 2.825 0 0 0-.972 1.08 1.034 1.034 0 0 1-.9.468h-4.032c-.264 0-.468-.072-.612-.216a.728.728 0 0 1-.18-.576c0-.432.156-.924.468-1.476.336-.576.84-1.14 1.512-1.692s1.536-1.008 2.592-1.368c1.056-.36 2.328-.54 3.816-.54 1.56 0 2.892.18 3.996.54 1.104.36 1.992.864 2.664 1.512a6.017 6.017 0 0 1 1.548 2.304c.336.864.504 1.824.504 2.88v10.944c0 .264-.096.48-.288.648a.833.833 0 0 1-.612.252h-4.176a.877.877 0 0 1-.648-.252.877.877 0 0 1-.252-.648v-1.26c-.312.456-.732.876-1.26 1.26s-1.152.684-1.872.9c-.696.24-1.512.36-2.448.36Zm1.692-4.104c.696 0 1.32-.144 1.872-.432.576-.312 1.02-.78 1.332-1.404.336-.648.504-1.452.504-2.412v-.504l-3.06.54c-1.128.192-1.956.492-2.484.9-.504.384-.756.84-.756 1.368 0 .408.12.756.36 1.044.24.288.552.516.936.684a3.67 3.67 0 0 0 1.296.216Zm21.63 4.104c-1.56 0-2.892-.168-3.996-.504-1.08-.36-1.968-.792-2.664-1.296-.672-.504-1.176-1.02-1.512-1.548-.336-.552-.516-1.02-.54-1.404a.727.727 0 0 1 .252-.648c.192-.192.396-.288.612-.288h4.104a.4.4 0 0 1 .18.036c.048.024.12.072.216.144.312.168.624.384.936.648.312.24.672.456 1.08.648.408.192.9.288 1.476.288.672 0 1.236-.132 1.692-.396.456-.264.684-.66.684-1.188 0-.384-.108-.696-.324-.936-.216-.264-.66-.516-1.332-.756-.648-.24-1.632-.48-2.952-.72-1.248-.288-2.34-.66-3.276-1.116-.936-.48-1.656-1.092-2.16-1.836-.504-.768-.756-1.692-.756-2.772 0-.96.312-1.884.936-2.772.624-.888 1.536-1.608 2.736-2.16 1.2-.576 2.676-.864 4.428-.864 1.392 0 2.592.168 3.6.504 1.032.312 1.896.72 2.592 1.224.72.504 1.26 1.02 1.62 1.548.36.528.552 1.008.576 1.44a.825.825 0 0 1-.216.648.793.793 0 0 1-.576.252h-3.744c-.096 0-.192-.012-.288-.036a2.354 2.354 0 0 1-.252-.144 4.508 4.508 0 0 1-.864-.576 5.198 5.198 0 0 0-1.008-.648c-.384-.192-.864-.288-1.44-.288-.648 0-1.152.144-1.512.432-.36.288-.54.66-.54 1.116 0 .312.096.6.288.864.216.264.636.504 1.26.72.648.216 1.644.456 2.988.72 1.656.264 2.976.696 3.96 1.296.984.576 1.68 1.26 2.088 2.052.408.768.612 1.584.612 2.448 0 1.152-.348 2.172-1.044 3.06-.672.888-1.68 1.584-3.024 2.088-1.344.48-2.976.72-4.896.72Zm21.665-.36c-1.536 0-2.868-.24-3.996-.72a5.547 5.547 0 0 1-2.556-2.304c-.6-1.056-.9-2.412-.9-4.068v-6.912h-2.808c-.264 0-.492-.084-.684-.252a.877.877 0 0 1-.252-.648V8.808c0-.264.084-.48.252-.648.192-.168.42-.252.684-.252h2.808v-5.94c0-.264.084-.48.252-.648a.959.959 0 0 1 .648-.252h4.176c.264 0 .48.084.648.252a.877.877 0 0 1 .252.648v5.94h4.5c.264 0 .48.084.648.252a.877.877 0 0 1 .252.648v2.916c0 .264-.084.48-.252.648a.877.877 0 0 1-.648.252h-4.5v6.408c0 .816.156 1.464.468 1.944.312.48.84.72 1.584.72h2.772c.264 0 .48.084.648.252a.877.877 0 0 1 .252.648v3.132c0 .264-.084.48-.252.648a.877.877 0 0 1-.648.252h-3.348Zm7.949 0a.877.877 0 0 1-.648-.252.877.877 0 0 1-.252-.648v-4.572c0-.24.084-.444.252-.612a.822.822 0 0 1 .648-.288h4.536c.264 0 .48.096.648.288a.784.784 0 0 1 .288.612v4.572c0 .264-.096.48-.288.648a.877.877 0 0 1-.648.252h-4.536Zm10.41 0a.877.877 0 0 1-.648-.252.877.877 0 0 1-.252-.648V8.808c0-.264.084-.48.252-.648a.877.877 0 0 1 .648-.252h4.248c.24 0 .444.084.612.252a.822.822 0 0 1 .288.648v16.92c0 .264-.096.48-.288.648a.833.833 0 0 1-.612.252h-4.248Zm-.036-21.42a.877.877 0 0 1-.648-.252.877.877 0 0 1-.252-.648V1.104c0-.264.084-.48.252-.648a.822.822 0 0 1 .648-.288h4.284c.264 0 .48.096.648.288a.822.822 0 0 1 .288.648v3.204c0 .264-.096.48-.288.648a.877.877 0 0 1-.648.252h-4.284Zm18.258 21.78c-2.016 0-3.72-.324-5.112-.972-1.368-.648-2.424-1.572-3.168-2.772-.72-1.224-1.128-2.676-1.224-4.356-.024-.48-.036-1.02-.036-1.62 0-.624.012-1.164.036-1.62.096-1.704.528-3.156 1.296-4.356.768-1.2 1.836-2.124 3.204-2.772 1.392-.648 3.06-.972 5.004-.972 1.968 0 3.636.324 5.004.972 1.392.648 2.472 1.572 3.24 2.772.768 1.2 1.2 2.652 1.296 4.356.024.456.036.996.036 1.62 0 .6-.012 1.14-.036 1.62-.096 1.68-.516 3.132-1.26 4.356-.72 1.2-1.776 2.124-3.168 2.772-1.368.648-3.072.972-5.112.972Zm0-4.392c1.08 0 1.86-.324 2.34-.972.504-.648.792-1.62.864-2.916.024-.36.036-.84.036-1.44s-.012-1.08-.036-1.44c-.072-1.272-.36-2.232-.864-2.88-.48-.672-1.26-1.008-2.34-1.008-1.056 0-1.836.336-2.34 1.008-.504.648-.78 1.608-.828 2.88-.024.36-.036.84-.036 1.44s.012 1.08.036 1.44c.048 1.296.324 2.268.828 2.916.504.648 1.284.972 2.34.972Z"/>
</svg>
