<svg xmlns="http://www.w3.org/2000/svg" width="58" height="49" fill="none" viewBox="0 0 58 49">
  <path fill="#EFEFEF" d="M.853.501h29.69v5.6H18.467v9.145l6.253-.014c6.149 0 11.134 4.985 11.134 11.134 0 4.31-2.45 8.048-6.032 9.899l.056.08c2.58 3.524 10.503 10.762 21.554 11.518-6.225 1.32-21.365.675-32.128-12.464.505-.023 2.025-.275 5.144-1.372l.007.001v-.003a7.882 7.882 0 0 0 .405-15.156c-2.055-.546-3.829-.63-6.393-.61v29.643H12.93V18.334c-.37.002-.752.003-1.148.003-5.698 0-8.824-2.061-9.701-3.056l10.85-.024V6.101H.852V.5ZM57.584 46.57a1.93 1.93 0 1 1-3.861 0 1.93 1.93 0 0 1 3.861 0Z"/>
</svg>
