<svg xmlns="http://www.w3.org/2000/svg" width="94" height="30" fill="none" viewBox="0 0 94 30">
  <path fill="#fff" fill-rule="evenodd" d="m30.998 16.593.94-7.932-31.265 4.97L29.44 29.732l.968-8.17c4.515.351 9.31.54 14.28.54 26.838 0 48.595-5.52 48.595-12.33 0-3.946-7.304-7.459-18.669-9.716-1.524-.303-2.926.88-2.926 2.434 0 1.217.873 2.255 2.066 2.493 1.432.286 2.79.592 4.066.916 4.182 1.061 7.21 2.244 9.072 3.361a.59.59 0 0 1 0 1.024c-1.862 1.117-4.89 2.3-9.072 3.36-8.287 2.103-20.003 3.459-33.132 3.459-4.784 0-9.38-.18-13.691-.51Zm57.424-7.5-.01.018.01-.019Zm-.005 1.35-.006-.008a.16.16 0 0 0 .011.019l-.005-.01Z" clip-rule="evenodd"/>
</svg>
