<svg xmlns="http://www.w3.org/2000/svg" width="12" height="25" fill="none" viewBox="0 0 12 25">
  <path fill="#EFEFEF" fill-rule="evenodd" d="M8.162 9.082H4.326v5.563a4.737 4.737 0 1 0 3.836 0V9.082Z" clip-rule="evenodd"/>
  <path fill="#fff" fill-rule="evenodd" stroke="#fff" stroke-linecap="round" stroke-width=".15" d="M6.244.45a2.517 2.517 0 0 0-2.517 2.517v11.341a5.382 5.382 0 1 0 5.035 0V2.967A2.517 2.517 0 0 0 6.243.45ZM3.872 14.583l.166-.088v-.94a.153.153 0 0 0 .025.003h1.2a.155.155 0 0 0 0-.311h-1.2c-.008 0-.017 0-.025.002v-.315a.153.153 0 0 0 .025.002h1.2a.155.155 0 0 0 0-.31h-1.2c-.008 0-.017 0-.025.002v-.316a.15.15 0 0 0 .03.003h1.2a.155.155 0 0 0 0-.311h-1.2l-.03.003v-.317a.15.15 0 0 0 .03.003h1.2a.155.155 0 0 0 0-.31h-1.2c-.01 0-.02 0-.03.003v-.317l.03.003h2.4a.155.155 0 0 0 0-.311h-2.4l-.03.003v-.317l.03.003h1.2a.155.155 0 0 0 0-.31h-1.2c-.01 0-.02 0-.03.002v-.316l.03.003h1.2a.155.155 0 0 0 0-.311h-1.2l-.03.003v-.317l.03.003h1.2a.155.155 0 1 0 0-.31h-1.2c-.01 0-.02 0-.03.002v-.316l.03.003h1.2a.155.155 0 1 0 0-.311h-1.2l-.03.003v-.317l.03.003h1.2a.155.155 0 0 0 0-.31h-1.2c-.01 0-.02 0-.03.002V7.34l.03.003h2.4a.155.155 0 1 0 0-.311h-2.4l-.03.003v-.317l.03.003h1.195a.155.155 0 1 0 0-.31H4.069c-.011 0-.021 0-.031.002v-.316l.03.003h1.195a.155.155 0 1 0 0-.311H4.069a.155.155 0 0 0-.031.003v-.317l.03.003h1.195a.155.155 0 1 0 0-.31H4.069c-.011 0-.021 0-.031.002v-.316l.03.003h1.195a.155.155 0 1 0 0-.311H4.069a.155.155 0 0 0-.031.003V2.967a2.206 2.206 0 1 1 4.413 0v11.528l.165.088a5.072 5.072 0 1 1-4.743 0Z" clip-rule="evenodd"/>
</svg>
