<svg xmlns="http://www.w3.org/2000/svg" width="40" height="26" fill="none" viewBox="0 0 40 26">
  <path fill="#fff" d="M29.327 3.082a5.585 5.585 0 0 1 7.899 7.898l-1.455 1.455a7.643 7.643 0 0 1-5.405 2.239H1.271a.617.617 0 1 1 0-1.235h29.095c1.7 0 3.33-.675 4.532-1.877l1.455-1.455A4.35 4.35 0 0 0 30.2 3.955l-.527.527a3.605 3.605 0 0 0 0 5.098.617.617 0 1 1-.873.873 4.84 4.84 0 0 1 0-6.844l.527-.527ZM.654 19.442c0-.34.276-.617.617-.617h21.53a.617.617 0 1 1 0 1.235H1.272a.617.617 0 0 1-.617-.618Zm.617 4.769a.617.617 0 1 0 0 1.235h11.97a.617.617 0 1 0 0-1.235H1.271Z"/>
  <path stroke="#fff" stroke-linecap="round" d="M29.327 3.082a5.585 5.585 0 0 1 7.899 7.898l-1.455 1.455a7.643 7.643 0 0 1-5.405 2.239H1.271a.617.617 0 1 1 0-1.235h29.095c1.7 0 3.33-.675 4.532-1.877l1.455-1.455A4.35 4.35 0 0 0 30.2 3.955l-.527.527a3.605 3.605 0 0 0 0 5.098.617.617 0 1 1-.873.873 4.84 4.84 0 0 1 0-6.844l.527-.527ZM.654 19.442c0-.34.276-.617.617-.617h21.53a.617.617 0 1 1 0 1.235H1.272a.617.617 0 0 1-.617-.618Zm.617 4.769a.617.617 0 1 0 0 1.235h11.97a.617.617 0 1 0 0-1.235H1.271Z"/>
</svg>
